# xmcd
#
# Track frame offsets: 
#        150
#        19758
#        31949
#        49688
#        60560
#        70431
#        80294
#        99083
#        114396
#        124766
#
# Disc length: 1801 seconds
#
# Revision: 5
# Processed by: cddbd v1.5.2PL0 Copyright (c) Steve Scherf et al.
# Submitted via: ExactAudioCopy v0.95b4
#
DISCID=7607070a
DTITLE=J.J Cale - 8
DYEAR=1983
DGENRE=Blues
TTITLE0=Money Talks
TTITLE1=Losers
TTITLE2=Hard Times
TTITLE3=Reality
TTITLE4=Takin' Care Of Business
TTITLE5=People Lie
TTITLE6=Unemployment
TTITLE7=Trouble In The City
TTITLE8=Teardrops In My Tequila
TTITLE9=Livin' Here Too
EXTD=YEAR: 1983
EXTT0=
EXTT1=
EXTT2=
EXTT3=
EXTT4=
EXTT5=
EXTT6=
EXTT7=
EXTT8=
EXTT9=
PLAYORDER=
